<svg xmlns="http://www.w3.org/2000/svg" width="162" height="35" viewBox="0 0 162 35">
  <g fill="#fff" fill-rule="evenodd">
    <text font-family="Roboto-Bold, Roboto" font-size="15" font-weight="bold">
      <tspan x="85" y="23">GYMPOINT</tspan>
    </text>
    <g fill-rule="nonzero" transform="translate(.43)">
      <path d="M61.178257,7.80905013 C60.4557855,7.80905013 59.771213,7.97419407 59.1602247,8.26861958 C59.0079204,5.8330786 56.9791736,3.89810526 54.5059993,3.89810526 C53.7821996,3.89810526 53.0964759,4.06378049 52.4846021,4.35926859 C52.3109575,1.94444808 50.2920397,0.0323203948 47.8337416,0.0323203948 C45.2618351,0.0323203948 43.1694216,2.1247339 43.1694216,4.69672894 L43.1694216,12.4283872 C43.1694216,13.1619274 43.7641169,13.7566226 44.497657,13.7566226 C45.2311971,13.7566226 45.8258924,13.1619274 45.8258924,12.4283872 L45.8258924,4.69672894 C45.8258924,3.5895119 46.7266131,2.6887912 47.8337416,2.6887912 C48.9409586,2.6887912 49.8416793,3.5895119 49.8416793,4.69672894 L49.8416793,25.9716067 L49.8416793,29.8373916 C49.8416793,30.9446086 48.9409586,31.8453293 47.8337416,31.8453293 C46.7266131,31.8453293 45.8258924,30.9446086 45.8258924,29.8373916 L45.8258924,22.1057333 C45.8258924,21.3721931 45.2311971,20.7774979 44.497657,20.7774979 L26.5830377,20.7774979 C25.8494976,20.7774979 25.2548023,21.3721931 25.2548023,22.1057333 C25.2548023,22.8392734 25.8494976,23.4339687 26.5830377,23.4339687 L43.1694216,23.4339687 L43.1694216,29.8373916 C43.1694216,32.4093866 45.2618351,34.5018001 47.8337416,34.5018001 C50.2921282,34.5018001 52.311046,32.5896724 52.4846021,30.1748519 C53.0964759,30.47034 53.7821996,30.6360152 54.5059993,30.6360152 C56.9791736,30.6360152 59.0079204,28.7008648 59.1602247,26.2655009 C59.771213,26.5599264 60.4557855,26.7250704 61.178257,26.7250704 C63.7501635,26.7250704 65.8426656,24.6326569 65.8426656,22.0607504 L65.8426656,12.4732816 C65.8426656,9.90137509 63.7501635,7.80905013 61.178257,7.80905013 Z M56.5140256,25.9716067 C56.5140256,27.0788237 55.6133049,27.9795444 54.5060879,27.9795444 C53.3988708,27.9795444 52.4981501,27.0788237 52.4981501,25.9716067 L52.4981501,8.5625138 C52.4981501,7.45529677 53.3988708,6.55457607 54.5060879,6.55457607 C55.6133049,6.55457607 56.5140256,7.45529677 56.5140256,8.5625138 L56.5140256,25.9716067 Z M63.1861948,22.0607504 C63.1861948,23.1678788 62.2853855,24.0685996 61.178257,24.0685996 C60.0711286,24.0685996 59.1704079,23.1678788 59.1704079,22.0607504 L59.1704079,12.4732816 C59.1704079,11.3662416 60.0711286,10.4655209 61.178257,10.4655209 C62.2853855,10.4655209 63.1861948,11.3662416 63.1861948,12.4732816 L63.1861948,22.0607504 Z"/>
      <path d="M21.382819,20.7774979 C20.6492789,20.7774979 20.0545836,21.3721931 20.0545836,22.1057333 L20.0545836,29.8373916 C20.0545836,30.9446086 19.1538629,31.8453293 18.0466459,31.8453293 C16.9394288,31.8453293 16.0387081,30.9446086 16.0387081,29.8373916 L16.0387081,25.9716067 L16.0387081,8.5625138 L16.0387081,4.69672894 C16.0387081,3.5895119 16.9394288,2.6887912 18.0466459,2.6887912 C19.1538629,2.6887912 20.0545836,3.5895119 20.0545836,4.69672894 L20.0545836,12.4283872 C20.0545836,13.1619274 20.6492789,13.7566226 21.382819,13.7566226 L39.2975268,13.7566226 C40.031067,13.7566226 40.6257622,13.1619274 40.6257622,12.4283872 C40.6257622,11.6948471 40.031067,11.1001518 39.2975268,11.1001518 L22.7110544,11.1001518 L22.7110544,4.69672894 C22.7110544,2.1247339 20.6186409,0.0323203948 18.0466459,0.0323203948 C15.5882592,0.0323203948 13.56943,1.94444808 13.3957853,4.35926859 C12.7839116,4.06378049 12.0980993,3.89810526 11.3742996,3.89810526 C8.90112528,3.89810526 6.87237853,5.8332557 6.7200742,8.26861958 C6.10908592,7.97419407 5.42451339,7.80905013 4.70204188,7.80905013 C2.13004684,7.80905013 0.0376333364,9.90146364 0.0376333364,12.4734587 L0.0376333364,22.0607504 C0.0376333364,24.6326569 2.13004684,26.7249818 4.70204188,26.7249818 C5.42451339,26.7249818 6.10908592,26.5598379 6.7200742,26.2654124 C6.87237853,28.7009533 8.90112528,30.6359267 11.3742996,30.6359267 C12.0980993,30.6359267 12.783823,30.4702515 13.3957853,30.1747633 C13.56943,32.5895839 15.5882592,34.5017115 18.0466459,34.5017115 C20.6186409,34.5017115 22.7110544,32.409298 22.7110544,29.837303 L22.7110544,22.1056447 C22.7110544,21.3721046 22.1164477,20.7774979 21.382819,20.7774979 Z M4.70221898,24.0685996 C3.59509049,24.0685996 2.69428124,23.1678788 2.69428124,22.0608389 L2.69428124,12.4734587 C2.69428124,11.3662416 3.59500194,10.4655209 4.70221898,10.4655209 C5.80934746,10.4655209 6.71006816,11.3662416 6.71006816,12.4734587 L6.71006816,22.0607504 C6.70997961,23.1678788 5.80925891,24.0685996 4.70221898,24.0685996 Z M11.3743882,27.9795444 C10.2672597,27.9795444 9.36645042,27.0788237 9.36645042,25.9716067 L9.36645042,8.5625138 C9.36645042,7.45529677 10.2671711,6.55457607 11.3743882,6.55457607 C12.4816052,6.55457607 13.3823259,7.45529677 13.3823259,8.5625138 L13.3823259,25.9716067 C13.3823259,27.0788237 12.4816052,27.9795444 11.3743882,27.9795444 Z"/>
      <path d="M20.050776 17.3446292L20.050776 17.7899422C20.050776 18.5234824 20.6454713 19.1181777 21.3790114 19.1181777 22.1125515 19.1181777 22.7072468 18.5234824 22.7072468 17.7899422L22.7072468 17.3446292C22.7072468 16.6110891 22.1125515 16.0163938 21.3790114 16.0163938 20.6454713 16.0163938 20.050776 16.6110891 20.050776 17.3446292zM45.825981 17.1969294L45.825981 16.7516164C45.825981 16.0180762 45.2311971 15.423381 44.4977455 15.423381 43.7641169 15.423381 43.1695101 16.0180762 43.1695101 16.7516164L43.1695101 17.1969294C43.1695101 17.9304696 43.7641169 18.5251648 44.4977455 18.5251648 45.2312857 18.5251648 45.825981 17.9304696 45.825981 17.1969294z"/>
    </g>
  </g>
</svg>
