<svg xmlns="http://www.w3.org/2000/svg" width="151" height="94" viewBox="0 0 151 94">
  <g fill="#EE4D64" fill-rule="evenodd" transform="translate(-1)">
    <text font-family="Roboto-Bold, Roboto" font-size="29.861" font-weight="bold">
      <tspan x="0" y="92.698">GYMPOINT</tspan>
    </text>
    <g fill-rule="nonzero" transform="translate(26.652)">
      <path d="M92.6413607,11.8251331 C91.5473324,11.8251331 90.510694,12.0752082 89.5854831,12.5210525 C89.3548509,8.83294759 86.2827486,5.90284511 82.5376561,5.90284511 C81.4416165,5.90284511 80.4032349,6.15372474 79.4766832,6.60117816 C79.2137356,2.94444995 76.1565172,0.0489423122 72.4339515,0.0489423122 C68.5393503,0.0489423122 65.3708384,3.21745419 65.3708384,7.11218953 L65.3708384,18.8201292 C65.3708384,19.9309186 66.271377,20.8314571 67.3821663,20.8314571 C68.4929557,20.8314571 69.3934942,19.9309186 69.3934942,18.8201292 L69.3934942,7.11218953 C69.3934942,5.4355466 70.7574427,4.07159811 72.4339515,4.07159811 C74.1105945,4.07159811 75.474543,5.4355466 75.474543,7.11218953 L75.474543,39.328433 L75.474543,45.1823358 C75.474543,46.8589787 74.1105945,48.2229272 72.4339515,48.2229272 C70.7574427,48.2229272 69.3934942,46.8589787 69.3934942,45.1823358 L69.3934942,33.4743961 C69.3934942,32.3636067 68.4929557,31.4630682 67.3821663,31.4630682 L40.2543143,31.4630682 C39.1435249,31.4630682 38.2429864,32.3636067 38.2429864,33.4743961 C38.2429864,34.5851855 39.1435249,35.485724 40.2543143,35.485724 L65.3708384,35.485724 L65.3708384,45.1823358 C65.3708384,49.0770711 68.5393503,52.245583 72.4339515,52.245583 C76.1566513,52.245583 79.2138697,49.3500754 79.4766832,45.6933472 C80.4032349,46.1408006 81.4416165,46.3916802 82.5376561,46.3916802 C86.2827486,46.3916802 89.3548509,43.4613095 89.5854831,39.7734728 C90.510694,40.2193172 91.5473324,40.4693923 92.6413607,40.4693923 C96.5359619,40.4693923 99.7046079,37.3008804 99.7046079,33.4062791 L99.7046079,18.8881121 C99.7046079,14.9935109 96.5359619,11.8251331 92.6413607,11.8251331 Z M85.5783816,39.328433 C85.5783816,41.0050759 84.2144331,42.3690244 82.5377902,42.3690244 C80.8611473,42.3690244 79.4971988,41.0050759 79.4971988,39.328433 L79.4971988,12.9660923 C79.4971988,11.2894494 80.8611473,9.92550091 82.5377902,9.92550091 C84.2144331,9.92550091 85.5783816,11.2894494 85.5783816,12.9660923 L85.5783816,39.328433 Z M95.6819521,33.4062791 C95.6819521,35.082788 94.3178695,36.4467365 92.6413607,36.4467365 C90.9648518,36.4467365 89.6009033,35.082788 89.6009033,33.4062791 L89.6009033,18.8881121 C89.6009033,17.2117373 90.9648518,15.8477889 92.6413607,15.8477889 C94.3178695,15.8477889 95.6819521,17.2117373 95.6819521,18.8881121 L95.6819521,33.4062791 Z"/>
      <path d="M32.3796974,31.4630682 C31.268908,31.4630682 30.3683695,32.3636067 30.3683695,33.4743961 L30.3683695,45.1823358 C30.3683695,46.8589787 29.004421,48.2229272 27.327778,48.2229272 C25.6511351,48.2229272 24.2871866,46.8589787 24.2871866,45.1823358 L24.2871866,39.328433 L24.2871866,12.9660923 L24.2871866,7.11218953 C24.2871866,5.4355466 25.6511351,4.07159811 27.327778,4.07159811 C29.004421,4.07159811 30.3683695,5.4355466 30.3683695,7.11218953 L30.3683695,18.8201292 C30.3683695,19.9309186 31.268908,20.8314571 32.3796974,20.8314571 L59.5076835,20.8314571 C60.6184729,20.8314571 61.5190114,19.9309186 61.5190114,18.8201292 C61.5190114,17.7093399 60.6184729,16.8088013 59.5076835,16.8088013 L34.3910253,16.8088013 L34.3910253,7.11218953 C34.3910253,3.21745419 31.2225134,0.0489423122 27.327778,0.0489423122 C23.6050783,0.0489423122 20.547994,2.94444995 20.2850464,6.60117816 C19.3584947,6.15372474 18.319979,5.90284511 17.2239394,5.90284511 C13.4788469,5.90284511 10.4067446,8.83321577 10.1761124,12.5210525 C9.25090153,12.0752082 8.21426313,11.8251331 7.12023484,11.8251331 C3.2254995,11.8251331 0.0569876237,14.9936449 0.0569876237,18.8883803 L0.0569876237,33.4062791 C0.0569876237,37.3008804 3.2254995,40.4692582 7.12023484,40.4692582 C8.21426313,40.4692582 9.25090153,40.2191831 10.1761124,39.7733387 C10.4067446,43.4614436 13.4788469,46.3915461 17.2239394,46.3915461 C18.319979,46.3915461 19.3583606,46.1406665 20.2850464,45.6932131 C20.547994,49.3499413 23.6050783,52.2454489 27.327778,52.2454489 C31.2225134,52.2454489 34.3910253,49.076937 34.3910253,45.1822017 L34.3910253,33.474262 C34.3910253,32.3634727 33.4906208,31.4630682 32.3796974,31.4630682 Z M7.12050302,36.4467365 C5.44399417,36.4467365 4.07991159,35.082788 4.07991159,33.4064132 L4.07991159,18.8883803 C4.07991159,17.2117373 5.44386009,15.8477889 7.12050302,15.8477889 C8.79701187,15.8477889 10.1609604,17.2117373 10.1609604,18.8883803 L10.1609604,33.4062791 C10.1608263,35.082788 8.79687778,36.4467365 7.12050302,36.4467365 Z M17.2240735,42.3690244 C15.5475646,42.3690244 14.1834821,41.0050759 14.1834821,39.328433 L14.1834821,12.9660923 C14.1834821,11.2894494 15.5474306,9.92550091 17.2240735,9.92550091 C18.9007164,9.92550091 20.2646649,11.2894494 20.2646649,12.9660923 L20.2646649,39.328433 C20.2646649,41.0050759 18.9007164,42.3690244 17.2240735,42.3690244 Z"/>
      <path d="M30.3626037 26.2647242L30.3626037 26.9390554C30.3626037 28.0498448 31.2631422 28.9503833 32.3739316 28.9503833 33.4847209 28.9503833 34.3852595 28.0498448 34.3852595 26.9390554L34.3852595 26.2647242C34.3852595 25.1539349 33.4847209 24.2533963 32.3739316 24.2533963 31.2631422 24.2533963 30.3626037 25.1539349 30.3626037 26.2647242zM69.3936283 26.0410645L69.3936283 25.3667333C69.3936283 24.255944 68.4929557 23.3554054 67.3823004 23.3554054 66.271377 23.3554054 65.3709725 24.255944 65.3709725 25.3667333L65.3709725 26.0410645C65.3709725 27.1518539 66.271377 28.0523924 67.3823004 28.0523924 68.4930898 28.0523924 69.3936283 27.1518539 69.3936283 26.0410645z"/>
    </g>
  </g>
</svg>
