<svg xmlns="http://www.w3.org/2000/svg" xmlns:xlink="http://www.w3.org/1999/xlink" width="162" height="35" viewBox="0 0 162 35">
  <defs>
    <path id="logo-a" d="M90.3100586,23.1464844 C91.1889648,23.1464844 91.9897461,23.0158691 92.7124023,22.7546387 C93.4350586,22.4934082 93.9941406,22.1259766 94.3896484,21.6523438 L94.3896484,21.6523438 L94.3896484,17.3969727 L90.1928711,17.3969727 L90.1928711,19.015625 L92.1923828,19.015625 L92.1923828,20.8540039 C91.8408203,21.2055664 91.2524414,21.3813477 90.4272461,21.3813477 C89.6069336,21.3813477 88.984375,21.0957031 88.5595703,20.5244141 C88.1347656,19.953125 87.9223633,19.1083984 87.9223633,17.9902344 L87.9223633,17.9902344 L87.9223633,17.309082 C87.9272461,16.2006836 88.125,15.3657227 88.515625,14.8041992 C88.90625,14.2426758 89.4750977,13.9619141 90.222168,13.9619141 C90.8081055,13.9619141 91.2683105,14.1035156 91.6027832,14.3867188 C91.9372559,14.6699219 92.1533203,15.1166992 92.2509766,15.7270508 L92.2509766,15.7270508 L94.3896484,15.7270508 C94.2578125,14.574707 93.8354492,13.6970215 93.1225586,13.0939941 C92.409668,12.4909668 91.4208984,12.1894531 90.15625,12.1894531 C89.2480469,12.1894531 88.4558105,12.395752 87.779541,12.8083496 C87.1032715,13.2209473 86.5856934,13.8166504 86.2268066,14.595459 C85.8679199,15.3742676 85.6884766,16.2958984 85.6884766,17.3603516 L85.6884766,17.3603516 L85.6884766,18.0854492 C85.6982422,19.1206055 85.892334,20.0214844 86.270752,20.7880859 C86.6491699,21.5546875 87.1862793,22.1394043 87.8820801,22.5422363 C88.5778809,22.9450684 89.387207,23.1464844 90.3100586,23.1464844 Z M100.966797,23 L100.966797,19.1328125 L104.467773,12.3359375 L102.06543,12.3359375 L99.8461914,17.140625 L97.6416016,12.3359375 L95.2319336,12.3359375 L98.7329102,19.1328125 L98.7329102,23 L100.966797,23 Z M107.63916,23 L107.63916,20.0849609 L107.419434,15.0605469 L110.290527,23 L111.799316,23 L114.677734,15.0532227 L114.458008,20.0849609 L114.458008,23 L116.662598,23 L116.662598,12.3359375 L113.776855,12.3359375 L111.052246,20.0703125 L108.312988,12.3359375 L105.441895,12.3359375 L105.441895,23 L107.63916,23 Z M120.778809,23 L120.778809,19.2426758 L122.705078,19.2426758 C123.969727,19.2426758 124.959717,18.9411621 125.675049,18.3381348 C126.390381,17.7351074 126.748047,16.9111328 126.748047,15.8662109 C126.748047,15.1777344 126.584473,14.5637207 126.257324,14.0241699 C125.930176,13.4846191 125.462646,13.0683594 124.854736,12.7753906 C124.246826,12.4824219 123.54248,12.3359375 122.741699,12.3359375 L122.741699,12.3359375 L118.581543,12.3359375 L118.581543,23 L120.778809,23 Z M122.741699,17.4628906 L120.778809,17.4628906 L120.778809,14.1157227 L122.792969,14.1157227 C123.334961,14.1254883 123.759766,14.2915039 124.067383,14.6137695 C124.375,14.9360352 124.528809,15.3583984 124.528809,15.8808594 C124.528809,16.3886719 124.376221,16.7792969 124.071045,17.0527344 C123.765869,17.3261719 123.322754,17.4628906 122.741699,17.4628906 L122.741699,17.4628906 Z M132.490234,23.1464844 C133.383789,23.1464844 134.176025,22.9316406 134.866943,22.5019531 C135.557861,22.0722656 136.088867,21.4619141 136.459961,20.6708984 C136.831055,19.8798828 137.016602,18.9594727 137.016602,17.909668 L137.016602,17.909668 L137.016602,17.4335938 C137.016602,16.3886719 136.827393,15.467041 136.448975,14.6687012 C136.070557,13.8703613 135.535889,13.2575684 134.844971,12.8303223 C134.154053,12.4030762 133.364258,12.1894531 132.475586,12.1894531 C131.586914,12.1894531 130.797119,12.4030762 130.106201,12.8303223 C129.415283,13.2575684 128.880615,13.8703613 128.502197,14.6687012 C128.123779,15.467041 127.93457,16.3911133 127.93457,17.440918 L127.93457,17.440918 L127.93457,17.9682617 C127.939453,18.9936523 128.132324,19.9006348 128.513184,20.689209 C128.894043,21.4777832 129.431152,22.0844727 130.124512,22.5092773 C130.817871,22.934082 131.606445,23.1464844 132.490234,23.1464844 Z M132.490234,21.3447266 C131.738281,21.3447266 131.162109,21.0444336 130.761719,20.4438477 C130.361328,19.8432617 130.161133,18.9985352 130.161133,17.909668 L130.161133,17.909668 L130.161133,17.3896484 C130.166016,16.28125 130.368652,15.4401855 130.769043,14.8664551 C131.169434,14.2927246 131.738281,14.0058594 132.475586,14.0058594 C133.217773,14.0058594 133.789062,14.2963867 134.189453,14.8774414 C134.589844,15.4584961 134.790039,16.3081055 134.790039,17.4262695 L134.790039,17.4262695 L134.790039,17.9462891 C134.785156,19.0546875 134.584961,19.8981934 134.189453,20.4768066 C133.793945,21.0554199 133.227539,21.3447266 132.490234,21.3447266 Z M140.949707,23 L140.949707,12.3359375 L138.752441,12.3359375 L138.752441,23 L140.949707,23 Z M145.183105,23 L145.183105,15.9833984 L149.460449,23 L151.657715,23 L151.657715,12.3359375 L149.467773,12.3359375 L149.467773,19.3671875 L145.183105,12.3359375 L142.98584,12.3359375 L142.98584,23 L145.183105,23 Z M158.125,23 L158.125,14.1157227 L161.391602,14.1157227 L161.391602,12.3359375 L152.705078,12.3359375 L152.705078,14.1157227 L155.927734,14.1157227 L155.927734,23 L158.125,23 Z"/>
  </defs>
  <g fill="none" fill-rule="evenodd">
    <g fill-rule="nonzero">
      <use fill="#000" xlink:href="#logo-a"/>
      <use fill="#EE4D64" xlink:href="#logo-a"/>
    </g>
    <g fill="#EE4D64" transform="translate(.43)">
      <path d="M61.178257,7.80905013 C60.4557855,7.80905013 59.771213,7.97419407 59.1602247,8.26861958 C59.0079204,5.8330786 56.9791736,3.89810526 54.5059993,3.89810526 C53.7821996,3.89810526 53.0964759,4.06378049 52.4846021,4.35926859 C52.3109575,1.94444808 50.2920397,0.0323203948 47.8337416,0.0323203948 C45.2618351,0.0323203948 43.1694216,2.1247339 43.1694216,4.69672894 L43.1694216,12.4283872 C43.1694216,13.1619274 43.7641169,13.7566226 44.497657,13.7566226 C45.2311971,13.7566226 45.8258924,13.1619274 45.8258924,12.4283872 L45.8258924,4.69672894 C45.8258924,3.5895119 46.7266131,2.6887912 47.8337416,2.6887912 C48.9409586,2.6887912 49.8416793,3.5895119 49.8416793,4.69672894 L49.8416793,25.9716067 L49.8416793,29.8373916 C49.8416793,30.9446086 48.9409586,31.8453293 47.8337416,31.8453293 C46.7266131,31.8453293 45.8258924,30.9446086 45.8258924,29.8373916 L45.8258924,22.1057333 C45.8258924,21.3721931 45.2311971,20.7774979 44.497657,20.7774979 L26.5830377,20.7774979 C25.8494976,20.7774979 25.2548023,21.3721931 25.2548023,22.1057333 C25.2548023,22.8392734 25.8494976,23.4339687 26.5830377,23.4339687 L43.1694216,23.4339687 L43.1694216,29.8373916 C43.1694216,32.4093866 45.2618351,34.5018001 47.8337416,34.5018001 C50.2921282,34.5018001 52.311046,32.5896724 52.4846021,30.1748519 C53.0964759,30.47034 53.7821996,30.6360152 54.5059993,30.6360152 C56.9791736,30.6360152 59.0079204,28.7008648 59.1602247,26.2655009 C59.771213,26.5599264 60.4557855,26.7250704 61.178257,26.7250704 C63.7501635,26.7250704 65.8426656,24.6326569 65.8426656,22.0607504 L65.8426656,12.4732816 C65.8426656,9.90137509 63.7501635,7.80905013 61.178257,7.80905013 Z M56.5140256,25.9716067 C56.5140256,27.0788237 55.6133049,27.9795444 54.5060879,27.9795444 C53.3988708,27.9795444 52.4981501,27.0788237 52.4981501,25.9716067 L52.4981501,8.5625138 C52.4981501,7.45529677 53.3988708,6.55457607 54.5060879,6.55457607 C55.6133049,6.55457607 56.5140256,7.45529677 56.5140256,8.5625138 L56.5140256,25.9716067 Z M63.1861948,22.0607504 C63.1861948,23.1678788 62.2853855,24.0685996 61.178257,24.0685996 C60.0711286,24.0685996 59.1704079,23.1678788 59.1704079,22.0607504 L59.1704079,12.4732816 C59.1704079,11.3662416 60.0711286,10.4655209 61.178257,10.4655209 C62.2853855,10.4655209 63.1861948,11.3662416 63.1861948,12.4732816 L63.1861948,22.0607504 Z"/>
      <path d="M21.382819,20.7774979 C20.6492789,20.7774979 20.0545836,21.3721931 20.0545836,22.1057333 L20.0545836,29.8373916 C20.0545836,30.9446086 19.1538629,31.8453293 18.0466459,31.8453293 C16.9394288,31.8453293 16.0387081,30.9446086 16.0387081,29.8373916 L16.0387081,25.9716067 L16.0387081,8.5625138 L16.0387081,4.69672894 C16.0387081,3.5895119 16.9394288,2.6887912 18.0466459,2.6887912 C19.1538629,2.6887912 20.0545836,3.5895119 20.0545836,4.69672894 L20.0545836,12.4283872 C20.0545836,13.1619274 20.6492789,13.7566226 21.382819,13.7566226 L39.2975268,13.7566226 C40.031067,13.7566226 40.6257622,13.1619274 40.6257622,12.4283872 C40.6257622,11.6948471 40.031067,11.1001518 39.2975268,11.1001518 L22.7110544,11.1001518 L22.7110544,4.69672894 C22.7110544,2.1247339 20.6186409,0.0323203948 18.0466459,0.0323203948 C15.5882592,0.0323203948 13.56943,1.94444808 13.3957853,4.35926859 C12.7839116,4.06378049 12.0980993,3.89810526 11.3742996,3.89810526 C8.90112528,3.89810526 6.87237853,5.8332557 6.7200742,8.26861958 C6.10908592,7.97419407 5.42451339,7.80905013 4.70204188,7.80905013 C2.13004684,7.80905013 0.0376333364,9.90146364 0.0376333364,12.4734587 L0.0376333364,22.0607504 C0.0376333364,24.6326569 2.13004684,26.7249818 4.70204188,26.7249818 C5.42451339,26.7249818 6.10908592,26.5598379 6.7200742,26.2654124 C6.87237853,28.7009533 8.90112528,30.6359267 11.3742996,30.6359267 C12.0980993,30.6359267 12.783823,30.4702515 13.3957853,30.1747633 C13.56943,32.5895839 15.5882592,34.5017115 18.0466459,34.5017115 C20.6186409,34.5017115 22.7110544,32.409298 22.7110544,29.837303 L22.7110544,22.1056447 C22.7110544,21.3721046 22.1164477,20.7774979 21.382819,20.7774979 Z M4.70221898,24.0685996 C3.59509049,24.0685996 2.69428124,23.1678788 2.69428124,22.0608389 L2.69428124,12.4734587 C2.69428124,11.3662416 3.59500194,10.4655209 4.70221898,10.4655209 C5.80934746,10.4655209 6.71006816,11.3662416 6.71006816,12.4734587 L6.71006816,22.0607504 C6.70997961,23.1678788 5.80925891,24.0685996 4.70221898,24.0685996 Z M11.3743882,27.9795444 C10.2672597,27.9795444 9.36645042,27.0788237 9.36645042,25.9716067 L9.36645042,8.5625138 C9.36645042,7.45529677 10.2671711,6.55457607 11.3743882,6.55457607 C12.4816052,6.55457607 13.3823259,7.45529677 13.3823259,8.5625138 L13.3823259,25.9716067 C13.3823259,27.0788237 12.4816052,27.9795444 11.3743882,27.9795444 Z"/>
      <path d="M20.050776,17.3446292 L20.050776,17.7899422 C20.050776,18.5234824 20.6454713,19.1181777 21.3790114,19.1181777 C22.1125515,19.1181777 22.7072468,18.5234824 22.7072468,17.7899422 L22.7072468,17.3446292 C22.7072468,16.6110891 22.1125515,16.0163938 21.3790114,16.0163938 C20.6454713,16.0163938 20.050776,16.6110891 20.050776,17.3446292 Z M45.825981,17.1969294 L45.825981,16.7516164 C45.825981,16.0180762 45.2311971,15.423381 44.4977455,15.423381 C43.7641169,15.423381 43.1695101,16.0180762 43.1695101,16.7516164 L43.1695101,17.1969294 C43.1695101,17.9304696 43.7641169,18.5251648 44.4977455,18.5251648 C45.2312857,18.5251648 45.825981,17.9304696 45.825981,17.1969294 Z"/>
    </g>
  </g>
</svg>
